# File created by Blade
# Date/Time:  Thu Sep 25 19:26:26 2014
# Frame Rate: 120.000 fps
#------------------------------------------------------
:FULLY-SPECIFIED
:DEGREES
273
root -2.612266 31.627027 -12.227164 102.421073 -31.914916 -2.150904
Spine 38.287614 3.263136 22.415011
Head -37.893995 -7.701026 14.680652
LeftShoulder 3.156383 -35.225705 44.733676
LeftArm 58.810877 -24.926615 -34.376714
LeftForeArm 42.404462 -0.000000 40.981282
LeftHand -33.456081 0.000000 44.575731
LeftHandThumb1 -26.253704 0.000000 33.147579
RightShoulder -4.477994 64.100450 -49.320422
RightArm 20.712013 6.271473 48.291819
RightForeArm -34.992057 -0.000000 39.304971
RightHand -5.076397 -0.000000 -35.514537
RightHandThumb1 -24.326973 -0.000000 -32.862282
LeftUpLeg -97.915603 16.935914 -26.909942
LeftLeg -2.105730 -0.000000 0.000000
LeftFoot -9.675679 20.843395 -38.734970
LeftToeBase 10.510139 -0.000000 -0.000000
RightUpLeg -114.101580 -5.841722 2.582746
RightLeg -3.761426 -0.000000 0.000000
RightFoot 11.567370 8.002059 5.215787
RightToeBase 0.360542 -0.000000 -0.000000
274
root -2.639986 31.629646 -12.220140 102.535255 -31.857532 -2.333796
Spine 38.691194 3.519717 22.336709
Head -36.717193 -8.094959 15.299878
LeftShoulder 3.091131 -34.616632 45.018011
LeftArm 58.822828 -25.805640 -34.203623
LeftForeArm 42.578627 -0.000000 41.369222
LeftHand -33.337441 0.000000 44.660204
LeftHandThumb1 -26.253704 0.000000 33.147579
RightShoulder -4.366787 64.192811 -49.183340
RightArm 20.588422 6.374138 47.882088
RightForeArm -34.570823 -0.000000 39.551793
RightHand -5.078077 -0.000000 -35.519358
RightHandThumb1 -24.326973 -0.000000 -32.862282
LeftUpLeg -98.217209 17.045918 -27.344472
LeftLeg -1.914869 -0.000000 0.000000
LeftFoot -9.495627 20.515284 -38.572001
LeftToeBase 10.518236 -0.000000 -0.000000
RightUpLeg -114.126966 -5.633890 2.658324
RightLeg -3.642853 -0.000000 0.000000
RightFoot 11.527785 7.987299 5.395479
RightToeBase 0.283365 -0.000000 -0.000000
275
root -2.668367 31.633308 -12.215398 102.662339 -31.775381 -2.489224
Spine 39.016742 3.690350 22.256367
Head -35.371996 -8.321223 15.635070
LeftShoulder 2.924252 -34.228344 45.348575
LeftArm 58.687588 -26.372561 -33.981967
LeftForeArm 42.831069 0.000000 41.638753
LeftHand -33.451546 -0.000000 45.006270
LeftHandThumb1 -26.253704 0.000000 33.147579
RightShoulder -4.143612 64.335499 -48.987767
RightArm 20.473556 6.474989 47.550268
RightForeArm -34.381050 -0.000000 39.761859
RightHand -5.314383 -0.000000 -35.883600
RightHandThumb1 -24.326973 -0.000000 -32.862282
LeftUpLeg -98.440930 17.153200 -27.531424
LeftLeg -1.796186 -0.000000 0.000000
LeftFoot -9.406158 20.417296 -38.415354
LeftToeBase 10.424849 -0.000000 -0.000000
RightUpLeg -114.174036 -5.434772 2.729500
RightLeg -3.526800 -0.000000 0.000000
RightFoot 11.371300 8.033521 5.292322
RightToeBase 0.528891 -0.000000 -0.000000
276
root -2.693366 31.636949 -12.211015 102.756989 -31.710147 -2.623038
Spine 39.312151 3.897192 22.162689
Head -33.957542 -8.512931 16.092369
LeftShoulder 2.822953 -33.736796 45.673400
LeftArm 58.634045 -26.971144 -33.679732
LeftForeArm 42.854965 -0.000000 41.714254
LeftHand -33.530191 0.000000 45.324336
LeftHandThumb1 -26.253704 0.000000 33.147579
RightShoulder -3.952585 64.425707 -48.737107
RightArm 20.393804 6.511065 47.187374
RightForeArm -34.152202 0.000000 39.944318
RightHand -5.340703 -0.000000 -36.079207
RightHandThumb1 -24.326973 -0.000000 -32.862282
LeftUpLeg -98.589435 17.261620 -27.635082
LeftLeg -1.718837 -0.000000 0.000000
LeftFoot -9.387647 20.379532 -38.348748
LeftToeBase 10.439240 -0.000000 -0.000000
RightUpLeg -114.209030 -5.257653 2.809507
RightLeg -3.413073 -0.000000 0.000000
RightFoot 11.284969 8.114527 5.314737
RightToeBase 0.540640 -0.000000 -0.000000
277
root -2.715895 31.640187 -12.212033 102.804262 -31.577875 -2.738076
Spine 39.488008 4.036904 22.198160
Head -31.936029 -9.196832 16.279793
LeftShoulder 3.085691 -33.339313 45.763825
LeftArm 58.195990 -27.518080 -33.133358
LeftForeArm 42.922664 -0.000000 41.769477
LeftHand -33.398591 -0.000000 45.804783
LeftHandThumb1 -26.253704 0.000000 33.147579
RightShoulder -3.211981 64.469858 -48.171117
RightArm 20.189060 6.679639 46.787562
RightForeArm -34.047924 -0.000000 40.081389
RightHand -5.353692 -0.000000 -36.268116
RightHandThumb1 -24.326973 -0.000000 -32.862282
LeftUpLeg -98.725559 17.381744 -27.635208
LeftLeg -1.612446 -0.000000 0.000000
LeftFoot -9.358333 20.356321 -38.244504
LeftToeBase 10.454441 -0.000000 -0.000000
RightUpLeg -114.196174 -5.107157 2.902065
RightLeg -3.312244 -0.000000 0.000000
RightFoot 11.197158 8.137903 5.348010
RightToeBase 0.240121 -0.000000 -0.000000
278
root -2.740804 31.644057 -12.212795 102.871796 -31.466583 -2.874076
Spine 39.690765 4.230587 22.160501
Head -30.164641 -9.658435 16.640925
LeftShoulder 3.194026 -32.784975 45.995164
LeftArm 57.949952 -28.104132 -32.635868
LeftForeArm 42.909706 -0.000000 41.731750
LeftHand -33.173331 0.000000 46.227433
LeftHandThumb1 -26.253704 0.000000 33.147579
RightShoulder -2.657498 64.421652 -47.636086
RightArm 20.134761 6.779666 46.367040
RightForeArm -33.951789 0.000000 40.175694
RightHand -5.326481 -0.000000 -36.600614
RightHandThumb1 -24.326973 -0.000000 -32.862282
LeftUpLeg -98.893328 17.503057 -27.694630
LeftLeg -1.473614 -0.000000 0.000000
LeftFoot -9.298436 20.285733 -38.078027
LeftToeBase 10.336252 -0.000000 -0.000000
RightUpLeg -114.197243 -4.929547 2.984646
RightLeg -3.203416 -0.000000 0.000000
RightFoot 11.102687 8.186961 5.334136
RightToeBase 0.222771 -0.000000 -0.000000
279
root -2.764545 31.647756 -12.212337 102.928352 -31.393842 -3.001319
Spine 39.865384 4.455857 22.063147
Head -28.396149 -10.255312 17.323592
LeftShoulder 3.352690 -32.199830 46.233237
LeftArm 57.728978 -28.672111 -32.051862
LeftForeArm 42.765220 -0.000000 41.562619
LeftHand -33.283574 -0.000000 46.619081
LeftHandThumb1 -26.253704 0.000000 33.147579
RightShoulder -2.173581 64.355484 -47.065288
RightArm 20.128227 6.798849 45.936707
RightForeArm -33.664024 0.000000 40.279255
RightHand -5.466325 -0.000000 -36.678092
RightHandThumb1 -24.326973 -0.000000 -32.862282
LeftUpLeg -99.036935 17.623895 -27.807839
LeftLeg -1.384591 -0.000000 0.000000
LeftFoot -9.302755 20.234541 -38.117966
LeftToeBase 10.531820 -0.000000 -0.000000
RightUpLeg -114.194555 -4.761707 3.052238
RightLeg -3.103838 -0.000000 0.000000
RightFoot 11.038308 8.241212 5.374643
RightToeBase 0.306999 -0.000000 -0.000000
280
root -2.784910 31.650754 -12.209556 103.001473 -31.356276 -3.124817
Spine 40.058651 4.671232 21.938992
Head -26.896150 -10.586893 17.750954
LeftShoulder 3.303467 -31.718392 46.584655
LeftArm 57.592914 -29.110410 -31.705823
LeftForeArm 42.960164 0.000000 41.358089
LeftHand -33.075261 -0.000000 46.978897
LeftHandThumb1 -26.253704 0.000000 33.147579
RightShoulder -1.946380 64.382793 -46.794065
RightArm 20.044097 6.868911 45.679141
RightForeArm -33.596858 0.000000 40.343805
RightHand -5.657985 -0.000000 -37.197689
RightHandThumb1 -24.326973 -0.000000 -32.862282
LeftUpLeg -99.163203 17.731253 -27.893418
LeftLeg -1.294498 -0.000000 0.000000
LeftFoot -9.287060 20.203459 -38.057749
LeftToeBase 10.541137 -0.000000 -0.000000
RightUpLeg -114.230297 -4.599154 3.122990
RightLeg -2.978459 -0.000000 0.000000
RightFoot 10.954590 8.349958 5.385622
RightToeBase 0.410346 -0.000000 -0.000000
281
root -2.803221 31.652946 -12.208400 103.063132 -31.301047 -3.232633
Spine 40.187462 4.869736 21.822079
Head -25.213481 -11.001309 18.164129
LeftShoulder 3.339131 -31.281109 46.905189
LeftArm 57.408652 -29.499584 -31.344632
LeftForeArm 42.991458 -0.000000 41.183049
LeftHand -33.318431 -0.000000 47.184023
LeftHandThumb1 -26.253704 0.000000 33.147579
RightShoulder -1.533119 64.371616 -46.362725
RightArm 19.935902 6.977905 45.396506
RightForeArm -33.582241 -0.000000 40.376971
RightHand -5.623869 -0.000000 -37.686447
RightHandThumb1 -24.326973 -0.000000 -32.862282
LeftUpLeg -99.218271 17.857557 -27.749335
LeftLeg -1.198826 -0.000000 0.000000
LeftFoot -9.342208 20.280579 -37.933144
LeftToeBase 10.453476 -0.000000 -0.000000
RightUpLeg -114.247631 -4.463328 3.176836
RightLeg -2.882809 -0.000000 0.000000
RightFoot 10.896499 8.388351 5.441497
RightToeBase 0.388981 -0.000000 -0.000000
282
root -2.821700 31.656666 -12.207142 103.136085 -31.226352 -3.340254
Spine 40.234827 5.030904 21.745990
Head -23.297798 -11.587399 18.337723
LeftShoulder 3.529208 -30.832399 47.010328
LeftArm 57.122408 -29.838054 -30.693171
LeftForeArm 42.773815 -0.000000 40.837909
LeftHand -32.988116 0.000000 47.739686
LeftHandThumb1 -26.253704 0.000000 33.147579
RightShoulder -0.967279 64.426639 -45.855382
RightArm 19.765659 7.045358 45.169309
RightForeArm -33.570598 -0.000000 40.394667
RightHand -5.734322 0.000000 -38.041913
RightHandThumb1 -24.326973 -0.000000 -32.862282
LeftUpLeg -99.334127 17.965672 -27.718189
LeftLeg -1.105047 -0.000000 0.000000
LeftFoot -9.356064 20.305500 -37.882390
LeftToeBase 10.484993 -0.000000 -0.000000
RightUpLeg -114.258748 -4.328939 3.225093
RightLeg -2.812953 -0.000000 0.000000
RightFoot 10.846066 8.440761 5.500467
RightToeBase 0.379660 -0.000000 -0.000000
283
root -2.840183 31.659755 -12.203708 103.213008 -31.161775 -3.453200
Spine 40.312346 5.162448 21.648725
Head -21.567054 -12.126333 18.500565
LeftShoulder 3.652677 -30.380130 47.158326
LeftArm 56.813477 -30.204986 -30.129318
LeftForeArm 42.833069 0.000000 40.649352
LeftHand -33.088808 -0.000000 48.055920
LeftHandThumb1 -26.253704 0.000000 33.147579
RightShoulder -0.632310 64.503546 -45.562273
RightArm 19.629255 7.068708 45.021886
RightForeArm -33.539490 0.000000 40.403274
RightHand -5.808354 -0.000000 -38.275434
RightHandThumb1 -24.326973 -0.000000 -32.862282
LeftUpLeg -99.459598 18.069437 -27.731447
LeftLeg -1.016442 -0.000000 0.000000
LeftFoot -9.459901 20.320036 -38.013565
LeftToeBase 10.677962 -0.000000 -0.000000
RightUpLeg -114.277421 -4.178711 3.303608
RightLeg -2.728622 -0.000000 0.000000
RightFoot 10.767186 8.515961 5.542271
RightToeBase 0.379224 -0.000000 -0.000000
284
root -2.858010 31.663138 -12.198858 103.315522 -31.130306 -3.554316
Spine 40.389882 5.347602 21.472831
Head -20.181753 -12.438598 18.951670
LeftShoulder 3.587645 -30.026446 47.483145
LeftArm 56.719413 -30.466650 -29.829445
LeftForeArm 42.685979 0.000000 40.367620
LeftHand -32.996277 -0.000000 48.747258
LeftHandThumb1 -26.253704 0.000000 33.147579
RightShoulder -0.396031 64.534415 -45.291333
RightArm 19.519413 7.030719 44.827009
RightForeArm -33.661741 -0.000000 40.387759
RightHand -6.142212 -0.000000 -38.955882
RightHandThumb1 -24.326973 -0.000000 -32.862282
LeftUpLeg -99.613095 18.130671 -27.827047
LeftLeg -0.917860 -0.000000 0.000000
LeftFoot -9.347466 20.275877 -37.807840
LeftToeBase 10.496945 -0.000000 -0.000000
RightUpLeg -114.355604 -4.019828 3.418677
RightLeg -2.605783 -0.000000 0.000000
RightFoot 10.700473 8.657997 5.612198
RightToeBase 0.338269 -0.000000 -0.000000
285
root -2.875391 31.664509 -12.194912 103.424473 -31.117915 -3.680612
Spine 40.480441 5.617375 21.289552
Head -18.879434 -12.795866 19.491152
LeftShoulder 3.537904 -29.559697 47.815211
LeftArm 56.714104 -30.807371 -29.499185
LeftForeArm 42.759801 0.000000 40.152551
LeftHand -33.233701 -0.000000 49.173518
LeftHandThumb1 -26.253704 0.000000 33.147579
RightShoulder -0.343735 64.530497 -45.119712
RightArm 19.403768 7.071152 44.690185
RightForeArm -33.570936 0.000000 40.469473
RightHand -6.053966 -0.000000 -39.141592
RightHandThumb1 -24.326973 -0.000000 -32.862282
LeftUpLeg -99.721882 18.228209 -27.872052
LeftLeg -0.887812 -0.000000 0.000000
LeftFoot -9.448911 20.351387 -37.864192
LeftToeBase 10.703794 -0.000000 -0.000000
RightUpLeg -114.432558 -3.854172 3.483735
RightLeg -2.474957 -0.000000 0.000000
RightFoot 10.613072 8.760700 5.582287
RightToeBase 0.333798 -0.000000 -0.000000
